<?xml version="1.0" standalone="no"?>
<!DOCTYPE svg PUBLIC "-//W3C//DTD SVG 20010904//EN"
 "http://www.w3.org/TR/2001/REC-SVG-20010904/DTD/svg10.dtd">
<svg version="1.0" xmlns="http://www.w3.org/2000/svg"
 width="968.000000pt" height="322.000000pt" viewBox="0 0 968.000000 322.000000"
 preserveAspectRatio="xMidYMid meet">
<metadata>
Created by potrace 1.15, written by Peter Selinger 2001-2017
</metadata>
<g transform="translate(0.000000,322.000000) scale(0.100000,-0.100000)"
fill="#000000" stroke="none">
<path d="M1467 2870 c-463 -84 -816 -370 -953 -773 -104 -304 -54 -651 129
-897 208 -281 668 -498 1092 -517 347 -16 593 95 703 316 33 67 37 83 40 173
9 206 -56 320 -231 409 -65 34 -162 61 -422 118 -226 50 -311 76 -354 108 -66
50 -77 137 -27 213 87 132 433 142 565 17 38 -37 70 -100 71 -139 l0 -28 175
0 c133 0 175 3 175 13 0 52 -27 154 -55 213 -103 214 -409 340 -740 305 -189
-20 -305 -65 -403 -156 -112 -104 -158 -221 -149 -380 6 -114 33 -188 94 -255
82 -92 189 -136 476 -195 206 -44 334 -78 386 -105 79 -40 113 -109 92 -187
-16 -58 -44 -88 -114 -123 -192 -94 -589 -28 -891 147 -111 65 -248 203 -299
300 -175 336 -42 772 308 1005 141 95 345 156 551 165 261 12 487 -50 698
-191 164 -110 291 -255 376 -430 224 -457 87 -987 -337 -1304 -82 -62 -220
-132 -324 -166 -138 -44 -265 -60 -433 -53 -210 9 -362 41 -519 109 -38 16
-71 28 -73 26 -2 -3 -26 -46 -54 -98 -40 -72 -48 -95 -38 -102 36 -24 210
-108 263 -126 354 -121 744 -109 1075 33 429 183 739 567 815 1007 20 115 20
335 0 451 -32 182 -111 369 -226 532 -195 274 -493 470 -838 552 -151 35 -445
42 -604 13z"/>
<path d="M5168 2395 c-177 -34 -319 -123 -428 -270 -133 -180 -188 -469 -146
-767 40 -279 183 -494 401 -599 119 -57 213 -72 409 -67 139 4 172 9 241 31
103 34 168 72 244 143 117 108 194 253 232 438 18 88 20 125 16 281 -8 309
-66 463 -238 634 -76 77 -167 129 -279 161 -99 29 -338 36 -452 15z m327 -290
c98 -28 191 -108 240 -210 48 -98 67 -197 67 -350 0 -224 -48 -363 -163 -470
-69 -63 -143 -94 -245 -102 -207 -16 -372 101 -441 312 -34 105 -44 337 -19
455 61 292 289 440 561 365z"/>
<path d="M3210 2220 l0 -140 248 -2 247 -3 3 -672 2 -673 165 0 165 0 2 673 3
672 243 3 242 2 0 140 0 140 -660 0 -660 0 0 -140z"/>
<path d="M6360 1545 l0 -815 165 0 165 0 0 320 0 320 203 0 c232 0 289 -10
331 -60 38 -46 46 -88 56 -300 5 -107 14 -214 21 -237 l11 -43 189 0 c212 0
216 2 159 66 -36 41 -38 55 -44 274 -2 96 -10 199 -16 228 -17 74 -64 141
-127 177 -29 17 -52 32 -53 35 0 4 15 11 34 18 116 42 206 205 206 372 0 228
-152 412 -371 449 -41 7 -227 11 -497 11 l-432 0 0 -815z m827 520 c90 -27
133 -97 133 -221 0 -82 -30 -140 -91 -174 -43 -25 -49 -25 -291 -28 l-248 -4
0 221 0 221 223 0 c170 0 235 -4 274 -15z"/>
<path d="M7950 1545 l0 -815 615 0 615 0 0 145 0 145 -450 0 -450 0 0 215 0
215 395 0 395 0 0 135 0 135 -395 0 -395 0 0 180 0 180 430 0 430 0 0 140 0
140 -595 0 -595 0 0 -815z"/>
</g>
</svg>
